<?xml version="1.0" encoding="UTF-8"?>
<svg xmlns="http://www.w3.org/2000/svg" viewBox="0 0 80 800" width="80" height="800" preserveAspectRatio="xMidYMin meet">
  <!-- Лоза ПРАВАЯ. Шире, выше, витиеватее. Другой паттерн змейки (противофаза левой). -->
  <g stroke="#A8802A" stroke-linecap="round" stroke-linejoin="round" fill="none" opacity="0.35">
    <!-- Стебель — противофаза к левой -->
    <path d="M40 6
             C 52 28, 24 48, 40 78
             C 56 110, 20 138, 40 170
             C 58 200, 20 232, 40 268
             C 52 296, 24 322, 40 352
             C 50 376, 30 400, 40 430
             C 56 460, 22 492, 40 524
             C 56 552, 20 582, 40 614
             C 52 638, 24 666, 40 696
             C 46 720, 34 746, 40 776" stroke-width="1.4"/>

    <!-- СЕКЦИЯ 1: длинные плавные усики направлены вверх-влево -->
    <path d="M40 40
             C 22 32, 10 18, 14 4
             C 18 -2, 26 0, 24 8
             C 22 14, 16 14, 14 10"/>
    <path d="M40 110
             C 20 102, 6 86, 10 68
             C 16 58, 26 60, 24 72
             C 22 80, 16 80, 14 76"/>
    <path d="M40 180 C 24 172, 16 160, 18 148" stroke-width="1.05"/>

    <!-- СЕКЦИЯ 2: тугие виточки -->
    <path d="M40 230
             C 22 222, 12 210, 14 196
             C 18 188, 26 190, 24 198"/>
    <path d="M40 290 C 20 284, 8 268, 12 252 C 18 242, 28 246, 26 256 C 24 264, 18 264, 16 260"/>
    <path d="M40 350 C 22 342, 16 332, 18 322" stroke-width="1.05"/>
    <path d="M40 410 C 20 404, 6 392, 8 376 C 12 366, 22 368, 20 378 C 18 386, 12 386, 10 382"/>
    <path d="M40 470 C 24 462, 18 452, 20 442" stroke-width="1.05"/>

    <!-- СЕКЦИЯ 3: широкие росчерки -->
    <path d="M40 550
             C 18 542, 4 526, 8 506
             C 16 496, 26 502, 22 514
             C 18 524, 10 520, 10 516"/>
    <path d="M40 630 C 22 624, 14 612, 16 600" stroke-width="1.05"/>
    <path d="M40 710
             C 20 702, 8 688, 10 670
             C 14 660, 24 662, 22 672
             C 20 680, 14 680, 12 676"/>
    <path d="M40 770 C 22 764, 14 754, 16 742" stroke-width="1.05"/>
  </g>

  <g fill="#A8802A" opacity="0.4">
    <circle cx="14" cy="10" r="1.8"/>
    <circle cx="14" cy="76" r="1.8"/>
    <circle cx="18" cy="148" r="1.6"/>
    <circle cx="24" cy="198" r="1.5"/>
    <circle cx="16" cy="260" r="1.7"/>
    <circle cx="18" cy="322" r="1.5"/>
    <circle cx="10" cy="382" r="1.7"/>
    <circle cx="20" cy="442" r="1.5"/>
    <circle cx="10" cy="516" r="1.8"/>
    <circle cx="16" cy="600" r="1.5"/>
    <circle cx="12" cy="676" r="1.7"/>
    <circle cx="16" cy="742" r="1.5"/>
  </g>
</svg>
