<?xml version="1.0" encoding="UTF-8"?>
<svg xmlns="http://www.w3.org/2000/svg" viewBox="0 0 80 400" width="80" height="400" preserveAspectRatio="xMidYMin meet">
<!-- Тропка собаки — пары лапок (передние+задние одновременно) сверху вниз с петлёй посередине. Использует /images/sampledata/dog-paw.svg как символ. -->
<symbol id="dogStep" viewBox="0 0 600 600">
<g transform="translate(0.000000,600.000000) scale(0.100000,-0.100000)"
fill="currentColor" stroke="none">
<path d="M2022 5928 c-19 -19 -14 -47 14 -73 33 -30 60 -32 74 -5 12 22 8 33
-23 68 -23 24 -47 28 -65 10z"/>
<path d="M5022 5928 c-19 -19 -14 -47 14 -73 33 -30 60 -32 74 -5 12 22 8 33
-23 68 -23 24 -47 28 -65 10z"/>
<path d="M1898 5909 c-26 -15 -22 -33 14 -68 42 -41 68 -49 85 -25 16 21 9 50
-20 82 -22 24 -51 28 -79 11z"/>
<path d="M4898 5909 c-25 -14 -22 -32 10 -64 39 -40 73 -51 89 -29 16 21 8 51
-20 82 -22 24 -51 28 -79 11z"/>
<path d="M2134 5825 c-10 -8 -40 -15 -65 -15 -63 0 -84 -17 -74 -61 4 -19 8
-57 9 -86 3 -66 18 -85 65 -81 33 3 39 8 62 56 14 29 42 67 62 83 41 34 46 57
20 87 -25 28 -55 35 -79 17z"/>
<path d="M5134 5825 c-10 -8 -40 -15 -65 -15 -63 0 -84 -17 -74 -61 4 -19 8
-57 9 -86 3 -66 18 -85 65 -81 33 3 39 8 62 56 14 29 42 67 62 83 41 34 46 57
20 87 -25 28 -55 35 -79 17z"/>
<path d="M1827 5815 c-21 -20 -21 -25 -2 -51 35 -51 125 -52 125 -1 0 50 -89
87 -123 52z"/>
<path d="M4826 5814 c-19 -18 -19 -20 -5 -46 28 -52 129 -56 129 -4 0 51 -88
86 -124 50z"/>
<path d="M1863 5693 c-25 -10 -14 -52 17 -68 52 -27 100 -15 100 26 0 36 -71
61 -117 42z"/>
<path d="M4863 5693 c-25 -10 -14 -52 17 -68 52 -27 100 -15 100 26 0 36 -71
61 -117 42z"/>
<path d="M813 5549 c-33 -12 -58 -66 -44 -95 23 -51 83 -17 97 55 7 35 -18 54
-53 40z"/>
<path d="M909 5521 c-16 -16 -29 -37 -29 -46 0 -28 20 -55 41 -55 26 0 79 52
79 78 0 59 -44 70 -91 23z"/>
<path d="M995 5441 c-16 -10 -39 -28 -50 -40 -19 -22 -19 -23 0 -37 56 -41
137 11 114 74 -10 27 -25 28 -64 3z"/>
<path d="M711 5394 c-31 -39 -26 -54 28 -108 27 -27 52 -61 56 -75 10 -38 24
-51 56 -51 38 0 72 37 64 70 -4 13 -7 27 -8 30 0 3 5 23 12 46 20 61 4 84 -57
84 -26 1 -58 7 -72 15 -37 21 -56 18 -79 -11z"/>
<path d="M956 5309 c-44 -35 -30 -69 28 -69 25 0 66 34 66 53 0 39 -53 48 -94
16z"/>
<path d="M4467 5028 c-24 -37 -28 -63 -14 -82 21 -29 61 -14 81 29 24 49 18
69 -21 73 -24 2 -35 -2 -46 -20z"/>
<path d="M4589 5021 c-16 -16 -29 -38 -29 -50 0 -23 25 -51 46 -51 22 0 74 55
74 78 0 59 -44 70 -91 23z"/>
<path d="M4675 4941 c-16 -10 -39 -28 -50 -40 -19 -22 -19 -23 0 -37 56 -41
137 11 114 74 -10 27 -25 28 -64 3z"/>
<path d="M4396 4899 c-39 -30 -33 -58 23 -113 27 -27 52 -61 56 -75 10 -38 24
-51 56 -51 40 0 71 36 63 73 -3 16 -1 48 6 72 18 63 3 85 -58 85 -26 1 -58 7
-72 15 -34 19 -43 19 -74 -6z"/>
<path d="M1647 4812 c-26 -28 -22 -77 8 -96 14 -9 28 -29 31 -44 15 -63 71
-82 114 -38 12 14 37 28 54 32 44 9 56 22 56 60 0 44 -30 64 -95 64 -33 0 -60
7 -80 20 -37 25 -67 25 -88 2z"/>
<path d="M4636 4809 c-44 -35 -30 -69 28 -69 25 0 66 34 66 53 0 39 -53 48
-94 16z"/>
<path d="M1596 4668 c-24 -40 -28 -65 -11 -82 21 -21 31 -20 55 4 22 22 35 63
26 85 -8 23 -53 18 -70 -7z"/>
<path d="M1850 4625 c-12 -15 -7 -63 12 -97 10 -21 39 -23 56 -6 15 15 16 72
2 99 -13 22 -52 25 -70 4z"/>
<path d="M1656 4569 c-14 -17 -26 -39 -26 -50 0 -23 36 -62 53 -57 19 6 47 70
47 106 0 27 -4 32 -24 32 -15 0 -34 -12 -50 -31z"/>
<path d="M1757 4562 c-24 -26 -22 -94 2 -116 30 -27 59 -12 72 36 9 36 8 45
-9 67 -24 33 -44 37 -65 13z"/>
<path d="M5327 4312 c-26 -28 -22 -77 8 -96 14 -9 28 -29 31 -44 15 -63 71
-82 114 -38 12 14 37 28 54 32 44 9 56 22 56 60 0 44 -30 64 -95 64 -33 0 -60
7 -80 20 -37 25 -67 25 -88 2z"/>
<path d="M5276 4168 c-24 -40 -28 -65 -11 -82 21 -21 31 -20 55 4 22 22 35 63
26 85 -8 23 -53 18 -70 -7z"/>
<path d="M5530 4125 c-12 -15 -7 -63 12 -97 10 -21 39 -23 56 -6 15 15 16 72
2 99 -13 22 -52 25 -70 4z"/>
<path d="M5349 4087 c-43 -34 -48 -96 -8 -117 25 -14 41 -2 59 39 17 42 10 85
-15 88 -11 2 -27 -3 -36 -10z"/>
<path d="M5437 4062 c-22 -24 -22 -84 1 -112 27 -33 59 -19 73 32 9 36 8 45
-9 67 -24 33 -44 37 -65 13z"/>
<path d="M2077 3602 c-26 -28 -22 -77 8 -96 14 -9 28 -29 31 -44 15 -63 71
-82 114 -38 12 14 37 28 54 32 44 9 56 22 56 60 0 44 -30 64 -95 64 -33 0 -60
7 -80 20 -37 25 -67 25 -88 2z"/>
<path d="M2026 3458 c-24 -40 -28 -65 -11 -82 21 -21 31 -20 55 4 22 22 35 63
26 85 -8 23 -53 18 -70 -7z"/>
<path d="M2282 3418 c-16 -16 -15 -41 2 -83 16 -36 41 -46 64 -23 15 15 16 72
2 99 -12 21 -50 25 -68 7z"/>
<path d="M251 3380 c-24 -11 -62 -20 -85 -20 -48 0 -66 -13 -66 -50 0 -30 17
-50 42 -50 9 0 33 -14 52 -31 45 -39 75 -36 97 11 10 19 29 46 43 59 31 29 33
54 6 81 -25 25 -34 25 -89 0z"/>
<path d="M3251 3380 c-24 -11 -62 -20 -85 -20 -48 0 -66 -13 -66 -50 0 -30 17
-50 42 -50 9 0 33 -14 52 -31 45 -39 75 -36 97 11 10 19 29 46 43 59 31 29 33
54 6 81 -25 25 -34 25 -89 0z"/>
<path d="M2099 3377 c-25 -19 -41 -57 -35 -83 7 -26 40 -49 57 -38 17 10 39
70 39 104 0 25 -4 30 -22 30 -13 0 -30 -6 -39 -13z"/>
<path d="M2187 3352 c-24 -26 -22 -94 2 -116 30 -27 59 -12 72 36 9 36 8 45
-9 67 -24 33 -44 37 -65 13z"/>
<path d="M345 3269 c-7 -22 16 -63 47 -83 20 -12 48 8 48 34 0 53 -81 94 -95
49z"/>
<path d="M3345 3269 c-7 -22 16 -63 47 -83 20 -12 48 8 48 34 0 53 -81 94 -95
49z"/>
<path d="M132 3218 c-17 -17 -15 -73 4 -89 33 -27 64 21 50 77 -7 26 -34 32
-54 12z"/>
<path d="M3132 3218 c-17 -17 -15 -73 4 -89 33 -27 64 21 50 77 -7 26 -34 32
-54 12z"/>
<path d="M302 3188 c-15 -15 -15 -43 -1 -71 15 -28 28 -37 56 -37 30 0 40 38
19 78 -21 40 -51 53 -74 30z"/>
<path d="M3302 3188 c-15 -15 -15 -43 -1 -71 15 -28 28 -37 56 -37 30 0 40 38
19 78 -21 40 -51 53 -74 30z"/>
<path d="M212 3155 c-7 -14 -12 -34 -12 -44 0 -24 31 -51 58 -51 19 0 22 6 22
41 0 22 -5 49 -10 60 -15 27 -45 24 -58 -6z"/>
<path d="M3212 3155 c-7 -14 -12 -34 -12 -44 0 -24 31 -51 58 -51 19 0 22 6
22 41 0 22 -5 49 -10 60 -15 27 -45 24 -58 -6z"/>
<path d="M787 2528 c-24 -37 -28 -63 -14 -82 21 -29 61 -14 81 29 24 49 18 69
-21 73 -24 2 -35 -2 -46 -20z"/>
<path d="M909 2521 c-16 -16 -29 -38 -29 -50 0 -23 25 -51 46 -51 22 0 74 55
74 78 0 59 -44 70 -91 23z"/>
<path d="M995 2441 c-16 -10 -39 -28 -50 -40 -19 -22 -19 -23 0 -37 56 -41
137 11 114 74 -10 27 -25 28 -64 3z"/>
<path d="M711 2394 c-31 -39 -26 -54 28 -108 27 -27 52 -61 56 -75 10 -38 24
-51 56 -51 40 0 71 36 63 73 -3 16 -1 48 6 72 18 63 3 85 -58 85 -26 1 -58 7
-72 15 -37 21 -56 18 -79 -11z"/>
<path d="M956 2309 c-44 -35 -30 -69 28 -69 25 0 66 34 66 53 0 39 -53 48 -94
16z"/>
<path d="M4220 2188 c-28 -30 -23 -72 8 -76 47 -7 115 67 81 89 -25 16 -68 10
-89 -13z"/>
<path d="M2322 2148 c-19 -19 -14 -47 14 -73 33 -30 60 -32 74 -5 12 22 8 33
-23 68 -23 24 -47 28 -65 10z"/>
<path d="M4343 2145 c-55 -24 -54 -95 1 -95 31 0 82 34 89 59 6 24 -16 51 -41
51 -9 -1 -31 -7 -49 -15z"/>
<path d="M2198 2129 c-25 -14 -22 -32 10 -64 39 -40 73 -51 89 -29 16 21 8 51
-20 82 -22 24 -51 28 -79 11z"/>
<path d="M4135 2122 c-29 -6 -55 -32 -55 -54 0 -10 9 -36 20 -58 12 -24 20
-59 20 -89 0 -57 17 -81 59 -81 24 0 71 34 64 46 -9 13 1 35 27 62 17 18 30
40 30 50 0 22 -25 47 -57 56 -12 4 -32 19 -45 34 -29 35 -38 40 -63 34z"/>
<path d="M5390 2061 c0 -32 38 -94 61 -99 10 -2 21 9 29 27 21 51 -9 101 -61
101 -25 0 -29 -4 -29 -29z"/>
<path d="M2434 2045 c-10 -8 -38 -15 -62 -15 -59 0 -82 -14 -82 -50 0 -16 5
-32 11 -36 7 -4 9 -25 7 -55 -7 -66 11 -91 60 -87 34 3 39 8 63 56 14 29 42
67 62 83 41 34 46 57 20 87 -25 28 -55 35 -79 17z"/>
<path d="M5522 2048 c-39 -39 22 -132 63 -98 19 16 19 43 0 80 -16 31 -42 39
-63 18z"/>
<path d="M2127 2035 c-20 -19 -20 -20 -6 -47 28 -52 129 -56 129 -5 0 50 -89
87 -123 52z"/>
<path d="M4337 2024 c-22 -12 -25 -18 -18 -33 16 -29 67 -46 97 -32 26 11 45
47 37 69 -7 17 -82 15 -116 -4z"/>
<path d="M5292 2028 c-17 -17 -15 -29 13 -71 30 -43 76 -52 95 -17 27 51 -68
128 -108 88z"/>
<path d="M5446 1928 c-9 -12 -16 -37 -16 -54 0 -17 -9 -43 -20 -57 -25 -31
-25 -48 -2 -77 26 -32 67 -29 105 8 38 35 68 52 95 52 24 0 52 30 52 56 0 11
-7 30 -16 43 -13 18 -23 22 -47 18 -18 -2 -48 4 -72 14 -52 24 -61 24 -79 -3z"/>
<path d="M4287 1933 c-29 -8 -18 -55 16 -67 57 -20 114 29 71 61 -18 13 -52
15 -87 6z"/>
<path d="M2163 1913 c-25 -10 -14 -52 17 -68 58 -30 109 -10 96 39 -8 30 -70
47 -113 29z"/>
<path d="M5271 1892 c-21 -39 43 -102 89 -87 34 11 27 61 -12 85 -41 25 -64
25 -77 2z"/>
<path d="M4706 1178 c-18 -26 -21 -64 -5 -74 6 -3 9 -22 6 -43 -9 -73 29 -110
87 -86 16 7 42 9 60 6 46 -10 63 -3 76 30 18 41 -1 74 -54 94 -26 10 -52 31
-69 56 -34 46 -76 54 -101 17z"/>
<path d="M4624 1088 c-44 -21 -56 -80 -19 -94 20 -8 63 21 78 53 9 21 8 27 -8
39 -22 16 -23 16 -51 2z"/>
<path d="M1947 1032 c-26 -28 -22 -77 8 -96 14 -9 28 -29 31 -44 15 -63 71
-82 114 -38 12 14 37 28 54 32 44 9 56 22 56 60 0 44 -30 64 -95 64 -33 0 -60
7 -80 20 -37 25 -67 25 -88 2z"/>
<path d="M4655 982 c-30 -6 -65 -43 -65 -67 0 -12 8 -29 18 -39 18 -15 21 -15
46 5 23 18 56 67 56 83 0 11 -36 22 -55 18z"/>
<path d="M4830 940 c-9 -6 -14 -27 -15 -62 0 -47 2 -53 22 -56 16 -2 28 6 43
30 24 40 25 61 4 82 -18 18 -32 20 -54 6z"/>
<path d="M4722 923 c-7 -3 -21 -22 -32 -42 -15 -31 -17 -42 -7 -62 17 -34 42
-35 72 -3 49 52 25 130 -33 107z"/>
<path d="M1896 888 c-24 -40 -28 -65 -11 -82 21 -21 31 -20 55 4 22 22 35 63
26 85 -8 23 -53 18 -70 -7z"/>
<path d="M2152 848 c-16 -16 -15 -41 2 -83 16 -36 41 -46 64 -23 15 15 16 72
2 99 -12 21 -50 25 -68 7z"/>
<path d="M1969 807 c-43 -34 -48 -96 -8 -117 25 -14 41 -2 59 39 17 42 10 85
-15 88 -11 2 -27 -3 -36 -10z"/>
<path d="M2057 782 c-36 -40 -9 -137 36 -130 16 2 26 15 36 46 12 40 12 46 -6
70 -25 34 -45 38 -66 14z"/>
<path d="M312 538 c-5 -7 -19 -32 -31 -55 -12 -24 -25 -43 -30 -43 -4 0 -20
-11 -34 -24 -30 -28 -27 -59 9 -82 20 -14 26 -14 52 0 17 9 43 13 63 10 22 -3
41 1 53 11 17 13 18 19 8 53 -6 20 -9 55 -5 76 5 31 2 42 -12 52 -24 17 -59
18 -73 2z"/>
<path d="M429 494 c-18 -22 0 -47 43 -58 44 -11 68 -3 68 23 0 42 -83 69 -111
35z"/>
<path d="M450 390 c-13 -24 3 -54 37 -69 32 -15 43 -14 64 5 14 13 16 21 7 39
-19 43 -89 60 -108 25z"/>
<path d="M3251 380 c-24 -11 -62 -20 -85 -20 -48 0 -66 -13 -66 -50 0 -30 17
-50 42 -50 9 0 33 -14 52 -31 45 -39 75 -36 97 11 10 19 29 46 43 59 31 29 33
54 6 81 -25 25 -34 25 -89 0z"/>
<path d="M393 324 c-3 -9 1 -31 10 -50 13 -27 23 -34 46 -34 16 0 35 7 42 16
11 14 8 21 -24 50 -40 37 -64 43 -74 18z"/>
<path d="M302 318 c-20 -20 -14 -45 19 -72 24 -21 34 -24 45 -15 21 17 17 43
-11 73 -27 29 -36 31 -53 14z"/>
<path d="M3345 269 c-7 -22 16 -63 47 -83 20 -12 48 8 48 34 0 53 -81 94 -95
49z"/>
<path d="M3132 218 c-17 -17 -15 -73 4 -89 33 -27 64 21 50 77 -7 26 -34 32
-54 12z"/>
<path d="M3302 188 c-15 -15 -15 -43 -1 -71 15 -28 28 -37 56 -37 30 0 40 38
19 78 -21 40 -51 53 -74 30z"/>
<path d="M3212 155 c-7 -14 -12 -34 -12 -44 0 -24 31 -51 58 -51 19 0 22 6 22
41 0 22 -5 49 -10 60 -15 27 -45 24 -58 -6z"/>
</g>
</symbol>
<g color="#7A7A75" opacity="0.65">
<use href="#dogStep" x="-19" y="-19" width="38" height="38" transform="translate(40 20) rotate(5)"/>
<use href="#dogStep" x="-19" y="-19" width="38" height="38" transform="translate(38 60) rotate(0)"/>
<use href="#dogStep" x="-19" y="-19" width="38" height="38" transform="translate(42 100) rotate(-3)"/>
<use href="#dogStep" x="-18" y="-18" width="36" height="36" transform="translate(52 138) rotate(35)"/>
<use href="#dogStep" x="-18" y="-18" width="36" height="36" transform="translate(62 170) rotate(70)"/>
<use href="#dogStep" x="-18" y="-18" width="36" height="36" transform="translate(60 202) rotate(115)"/>
<use href="#dogStep" x="-18" y="-18" width="36" height="36" transform="translate(44 214) rotate(165)"/>
<use href="#dogStep" x="-18" y="-18" width="36" height="36" transform="translate(28 204) rotate(210)"/>
<use href="#dogStep" x="-18" y="-18" width="36" height="36" transform="translate(20 178) rotate(250)"/>
<use href="#dogStep" x="-18" y="-18" width="36" height="36" transform="translate(26 146) rotate(300)"/>
<use href="#dogStep" x="-18" y="-18" width="36" height="36" transform="translate(36 140) rotate(350)"/>
<use href="#dogStep" x="-19" y="-19" width="38" height="38" transform="translate(40 248) rotate(5)"/>
<use href="#dogStep" x="-19" y="-19" width="38" height="38" transform="translate(38 292) rotate(-3)"/>
<use href="#dogStep" x="-19" y="-19" width="38" height="38" transform="translate(42 336) rotate(4)"/>
<use href="#dogStep" x="-19" y="-19" width="38" height="38" transform="translate(40 380) rotate(0)"/>
</g>
</svg>