<?xml version="1.0" encoding="UTF-8"?>
<svg xmlns="http://www.w3.org/2000/svg" viewBox="0 0 1200 800" width="1200" height="800">
  <rect width="1200" height="800" fill="#1a1a1a"/>
  <rect x="40" y="40" width="1120" height="720" rx="10" fill="#0f0f0f" stroke="#2a2a2a" stroke-width="1"/>
  <rect x="40" y="40" width="1120" height="40" rx="10" fill="#1a1a1a"/>
  <circle cx="65" cy="60" r="6" fill="#ff5f57"/>
  <circle cx="85" cy="60" r="6" fill="#febc2e"/>
  <circle cx="105" cy="60" r="6" fill="#28c840"/>
  <rect x="140" y="50" width="900" height="20" rx="4" fill="#2a2a2a"/>
  <text x="160" y="65" font-family="ui-monospace, monospace" font-size="13" fill="#888">localhost:3001/admin/collections/pages/1</text>
  <!-- sidebar -->
  <rect x="40" y="80" width="220" height="680" fill="#0a0a0a"/>
  <text x="60" y="120" font-family="ui-monospace, monospace" font-size="11" font-weight="700" fill="#666" letter-spacing="2">CONTENT</text>
  <rect x="50" y="135" width="200" height="34" rx="4" fill="#1f1f1f"/>
  <text x="70" y="157" font-family="ui-monospace, monospace" font-size="13" fill="#fafafa">Pages</text>
  <text x="70" y="195" font-family="ui-monospace, monospace" font-size="13" fill="#888">Media</text>
  <text x="70" y="223" font-family="ui-monospace, monospace" font-size="13" fill="#888">FAQ Groups</text>
  <text x="60" y="280" font-family="ui-monospace, monospace" font-size="11" font-weight="700" fill="#666" letter-spacing="2">ADMIN</text>
  <text x="70" y="305" font-family="ui-monospace, monospace" font-size="13" fill="#888">Users</text>
  <text x="70" y="333" font-family="ui-monospace, monospace" font-size="13" fill="#888">Settings</text>
  <!-- main content -->
  <text x="290" y="120" font-family="ui-monospace, monospace" font-size="22" font-weight="600" fill="#fafafa">Edit Page: Home</text>
  <rect x="290" y="150" width="850" height="36" rx="4" fill="#1f1f1f" stroke="#2a2a2a"/>
  <text x="305" y="173" font-family="ui-monospace, monospace" font-size="13" fill="#fafafa">Title: Главная</text>
  <rect x="290" y="200" width="850" height="36" rx="4" fill="#1f1f1f" stroke="#2a2a2a"/>
  <text x="305" y="223" font-family="ui-monospace, monospace" font-size="13" fill="#fafafa">Slug: home</text>
  <!-- blocks list -->
  <text x="290" y="280" font-family="ui-monospace, monospace" font-size="13" font-weight="600" fill="#fafafa">Blocks</text>
  <rect x="290" y="295" width="850" height="56" rx="4" fill="#1f1f1f" stroke="#2a2a2a"/>
  <text x="305" y="328" font-family="ui-monospace, monospace" font-size="13" fill="#888">⋮⋮ Hero — "Web Holy Grail / Next 15 + Payload 3"</text>
  <rect x="290" y="360" width="850" height="56" rx="4" fill="#1f1f1f" stroke="#2a2a2a"/>
  <text x="305" y="393" font-family="ui-monospace, monospace" font-size="13" fill="#888">⋮⋮ Prose — Quick start commands</text>
  <rect x="290" y="425" width="850" height="56" rx="4" fill="#1f1f1f" stroke="#2a2a2a"/>
  <text x="305" y="458" font-family="ui-monospace, monospace" font-size="13" fill="#888">⋮⋮ Banner-slider — 4 screenshots</text>
  <rect x="290" y="490" width="850" height="56" rx="4" fill="#1f1f1f" stroke="#2a2a2a"/>
  <text x="305" y="523" font-family="ui-monospace, monospace" font-size="13" fill="#888">⋮⋮ Certified-notice — Stack list</text>
  <!-- save btn -->
  <rect x="1020" y="715" width="120" height="34" rx="6" fill="#fafafa"/>
  <text x="1080" y="737" font-family="ui-monospace, monospace" font-size="13" font-weight="600" fill="#0a0a0a" text-anchor="middle">Save</text>
</svg>
