<?xml version="1.0" encoding="UTF-8"?>
<svg xmlns="http://www.w3.org/2000/svg" viewBox="0 0 1200 800" width="1200" height="800">
  <rect width="1200" height="800" fill="#1a1a1a"/>
  <!-- browser chrome -->
  <rect x="40" y="40" width="1120" height="720" rx="10" fill="#0f0f0f" stroke="#2a2a2a" stroke-width="1"/>
  <rect x="40" y="40" width="1120" height="40" rx="10" fill="#1a1a1a"/>
  <circle cx="65" cy="60" r="6" fill="#ff5f57"/>
  <circle cx="85" cy="60" r="6" fill="#febc2e"/>
  <circle cx="105" cy="60" r="6" fill="#28c840"/>
  <rect x="140" y="50" width="900" height="20" rx="4" fill="#2a2a2a"/>
  <text x="160" y="65" font-family="ui-monospace, monospace" font-size="13" fill="#888">localhost:3000</text>
  <!-- hero zone -->
  <text x="600" y="200" font-family="ui-monospace, monospace" font-size="48" font-weight="600" fill="#fafafa" text-anchor="middle">Landing preview</text>
  <text x="600" y="240" font-family="ui-monospace, monospace" font-size="18" fill="#888" text-anchor="middle">Replace this in /admin → Media → screenshot-landing.svg</text>
  <!-- block placeholders -->
  <rect x="200" y="320" width="800" height="80" rx="6" fill="#1f1f1f" stroke="#2a2a2a"/>
  <rect x="220" y="350" width="200" height="20" rx="3" fill="#2a2a2a"/>
  <rect x="200" y="430" width="800" height="120" rx="6" fill="#1f1f1f" stroke="#2a2a2a"/>
  <rect x="220" y="460" width="500" height="14" rx="3" fill="#2a2a2a"/>
  <rect x="220" y="490" width="400" height="14" rx="3" fill="#2a2a2a"/>
  <rect x="220" y="520" width="450" height="14" rx="3" fill="#2a2a2a"/>
  <rect x="200" y="580" width="380" height="100" rx="6" fill="#1f1f1f" stroke="#2a2a2a"/>
  <rect x="620" y="580" width="380" height="100" rx="6" fill="#1f1f1f" stroke="#2a2a2a"/>
</svg>
