<?xml version="1.0" encoding="UTF-8"?>
<svg xmlns="http://www.w3.org/2000/svg" viewBox="0 0 1200 800" width="1200" height="800">
  <rect width="1200" height="800" fill="#1a1a1a"/>
  <rect x="40" y="40" width="1120" height="720" rx="10" fill="#0f0f0f" stroke="#2a2a2a" stroke-width="1"/>
  <rect x="40" y="40" width="1120" height="40" rx="10" fill="#1a1a1a"/>
  <circle cx="65" cy="60" r="6" fill="#ff5f57"/>
  <circle cx="85" cy="60" r="6" fill="#febc2e"/>
  <circle cx="105" cy="60" r="6" fill="#28c840"/>
  <rect x="140" y="50" width="900" height="20" rx="4" fill="#2a2a2a"/>
  <text x="160" y="65" font-family="ui-monospace, monospace" font-size="13" fill="#888">localhost:3001/admin/collections/media</text>
  <!-- header -->
  <text x="80" y="130" font-family="ui-monospace, monospace" font-size="22" font-weight="600" fill="#fafafa">Media (8)</text>
  <text x="80" y="155" font-family="ui-monospace, monospace" font-size="13" fill="#666">Auto-uploaded to S3 via @payloadcms/storage-s3</text>
  <!-- grid 4x2 -->
  <g font-family="ui-monospace, monospace" font-size="12" fill="#888" text-anchor="middle">
    <rect x="80" y="200" width="240" height="160" rx="6" fill="#1f1f1f" stroke="#2a2a2a"/>
    <text x="200" y="285">whg-logo.svg</text>
    <text x="200" y="305" fill="#555">image/svg • 2 KB</text>
    <rect x="340" y="200" width="240" height="160" rx="6" fill="#1f1f1f" stroke="#2a2a2a"/>
    <text x="460" y="285">whg-hero.svg</text>
    <text x="460" y="305" fill="#555">image/svg • 1 KB</text>
    <rect x="600" y="200" width="240" height="160" rx="6" fill="#1f1f1f" stroke="#2a2a2a"/>
    <text x="720" y="285">og-placeholder.svg</text>
    <text x="720" y="305" fill="#555">image/svg • 1 KB</text>
    <rect x="860" y="200" width="240" height="160" rx="6" fill="#1f1f1f" stroke="#2a2a2a"/>
    <text x="980" y="285">screenshot-admin.svg</text>
    <text x="980" y="305" fill="#555">image/svg • 3 KB</text>
    <rect x="80" y="380" width="240" height="160" rx="6" fill="#1f1f1f" stroke="#2a2a2a"/>
    <text x="200" y="465">feature-stack.svg</text>
    <text x="200" y="485" fill="#555">image/svg • 1 KB</text>
    <rect x="340" y="380" width="240" height="160" rx="6" fill="#1f1f1f" stroke="#2a2a2a"/>
    <text x="460" y="465">feature-growth.svg</text>
    <text x="460" y="485" fill="#555">image/svg • 1 KB</text>
    <rect x="600" y="380" width="240" height="160" rx="6" fill="#1f1f1f" stroke="#2a2a2a"/>
    <text x="720" y="465">feature-contracts.svg</text>
    <text x="720" y="485" fill="#555">image/svg • 1 KB</text>
    <rect x="860" y="380" width="240" height="160" rx="6" fill="#1f1f1f" stroke="#2a2a2a"/>
    <text x="980" y="465">screenshot-landing.svg</text>
    <text x="980" y="485" fill="#555">image/svg • 3 KB</text>
  </g>
</svg>
