<?xml version="1.0" encoding="UTF-8"?>
<svg xmlns="http://www.w3.org/2000/svg" viewBox="0 0 1200 800" width="1200" height="800">
  <rect width="1200" height="800" fill="#1a1a1a"/>
  <rect x="40" y="40" width="1120" height="720" rx="10" fill="#0f0f0f" stroke="#2a2a2a" stroke-width="1"/>
  <rect x="40" y="40" width="1120" height="40" rx="10" fill="#1a1a1a"/>
  <circle cx="65" cy="60" r="6" fill="#ff5f57"/>
  <circle cx="85" cy="60" r="6" fill="#febc2e"/>
  <circle cx="105" cy="60" r="6" fill="#28c840"/>
  <rect x="140" y="50" width="900" height="20" rx="4" fill="#2a2a2a"/>
  <text x="160" y="65" font-family="ui-monospace, monospace" font-size="13" fill="#888">localhost:3001/admin → block: Hero</text>
  <!-- block edit -->
  <text x="80" y="130" font-family="ui-monospace, monospace" font-size="22" font-weight="600" fill="#fafafa">Hero block</text>
  <text x="80" y="155" font-family="ui-monospace, monospace" font-size="13" fill="#666">Editing — auto-saved every 800ms</text>
  <!-- fields -->
  <text x="80" y="210" font-family="ui-monospace, monospace" font-size="12" fill="#888">title</text>
  <rect x="80" y="220" width="1040" height="44" rx="4" fill="#1f1f1f" stroke="#2a2a2a"/>
  <text x="95" y="247" font-family="ui-monospace, monospace" font-size="14" fill="#fafafa">Web Holy Grail — {accent} template для production-сайтов</text>
  <text x="80" y="295" font-family="ui-monospace, monospace" font-size="12" fill="#888">titleAccent</text>
  <rect x="80" y="305" width="500" height="44" rx="4" fill="#1f1f1f" stroke="#2a2a2a"/>
  <text x="95" y="332" font-family="ui-monospace, monospace" font-size="14" fill="#fafafa">opinionated</text>
  <text x="80" y="380" font-family="ui-monospace, monospace" font-size="12" fill="#888">subtitle</text>
  <rect x="80" y="390" width="1040" height="44" rx="4" fill="#1f1f1f" stroke="#2a2a2a"/>
  <text x="95" y="417" font-family="ui-monospace, monospace" font-size="14" fill="#fafafa">Next.js 15 + Payload 3 + Docker — каркас, который растёт вместе с бизнесом</text>
  <!-- preview area -->
  <text x="80" y="490" font-family="ui-monospace, monospace" font-size="12" fill="#666">live preview</text>
  <rect x="80" y="500" width="1040" height="220" rx="6" fill="#0a0a0a" stroke="#2a2a2a"/>
  <text x="600" y="585" font-family="ui-monospace, monospace" font-size="28" font-weight="600" fill="#fafafa" text-anchor="middle">Web Holy Grail — </text>
  <text x="795" y="585" font-family="ui-monospace, monospace" font-size="28" font-weight="600" fill="#fafafa" text-anchor="start" font-style="italic">opinionated</text>
  <text x="600" y="615" font-family="ui-monospace, monospace" font-size="28" font-weight="600" fill="#fafafa" text-anchor="middle"> template для production-сайтов</text>
  <text x="600" y="650" font-family="ui-monospace, monospace" font-size="14" fill="#888" text-anchor="middle">Next.js 15 + Payload 3 + Docker — каркас, который растёт вместе с бизнесом</text>
</svg>
